<svg id="Layer_1" data-name="Layer 1" xmlns="http://www.w3.org/2000/svg" viewBox="0 0 203.06 176.45">
	<defs>
		<style>
			.cls-1,.cls-2{fill:#231f;}.cls-2,.cls-4{fill:#321;stroke:#fff;stroke-miterlimit:10;stroke-width:2px;}.cls-3{fill:none;}
		</style>
	</defs>
	<polygon class="cls-1" points="24.94 164.11 24.94 174.47 0 174.47 0 0 24.94 0 24.94 11.01 10.71 11.01 10.71 81.22 23.5 81.22 23.5 92.47 10.79 92.47 10.79 163.68 24.94 163.68 24.94 164.11" />
	<path class="cls-1" d="M97.19,73.21v5.2q0,13.82-11.89,13.8H78.89Q67,92.21,67,78.41V24.8Q67,11,78.89,11H85.3q11.88,0,11.89,13.8V34H87.26V25.59q0-4.75-4.44-4.75h-2q-3.93,0-3.93,4.75v52q0,4.75,3.93,4.75h2.48q3.93,0,3.93-4.75V73.21Z" transform="translate(-10.59 -11)" />
	<path class="cls-1" d="M134.82,11V76.83q0,15.39-11.58,15.38h-8.09q-11.48,0-11.48-15.49V11h9.59V77.06c0,3.54,1.39,5.31,4.19,5.31h3.89q3.9,0,3.9-5.31V11Z" transform="translate(-10.59 -11)" />
	<path class="cls-1" d="M152.84,92.21H143.3V24.91Q143.3,11,154.72,11h7.15q11.43,0,11.43,13.91v67.3h-9.54V62.47H152.84Zm10.92-38.72V25.89q0-4.84-4.17-4.84H157q-4.17,0-4.17,4.84v27.6Z" transform="translate(-10.59 -11)" />
	<path class="cls-1" d="M181.06,11h19.3q11.29,0,11.3,13.91v20q0,10.64-5.86,13.46l6.88,33.82h-9.34l-6.47-32.8h-6v32.8h-9.86Zm9.86,39.14h6.47q4.41,0,4.41-5.89V26.72q0-5.88-4.41-5.88h-6.47Z" transform="translate(-10.59 -11)" />
	<polygon class="cls-1" points="30.71 0 41.53 0 41.53 163.53 54.35 163.53 54.35 174.47 31.18 174.47 30.71 0" />
	<path class="cls-1" d="M86.66,115.2v70.29H75.57V115.2H67v-9.68H95.58v9.69Z" transform="translate(-10.59 -11)" />
	<path class="cls-1" d="M99.65,185.49v-80h11.09v80Z" transform="translate(-10.59 -11)" />
	<path class="cls-2" d="M182.81,186.45q-16.81,0-16.81-13.94V118.45q0-14.07,16.66-14.06H196q16.65,0,16.66,14.06v54.06q0,14-16.81,13.94Zm2.18-9.94h9.52q7.4,0,7.39-4.8V119.13q0-4.8-8.36-4.8h-8.75q-8.16,0-8.16,4.8v52.58Q176.63,176.51,185,176.51Z" transform="translate(-10.59 -11)" />
	<path class="cls-3" d="M142.49,114.33h-8.74q-8.17,0-8.17,4.8v52.56q0,4.8,8.36,4.8h9.53q7.38,0,7.38-4.8v-3.36h-6.11v-41.8h6.11v-7.4Q150.85,114.33,142.49,114.33Z" transform="translate(-10.59 -11)" />
	<path class="cls-4" d="M150.85,171.69q0,4.8-7.38,4.8h-9.53q-8.35,0-8.36-4.8V119.13q0-4.8,8.17-4.8h8.74q8.35,0,8.36,4.8v7.4H161.6v-8.09q0-14.06-16.66-14H131.61q-16.67,0-16.66,14v54.05q0,13.95,16.81,13.94h13q16.82,0,16.81-13.94v-4.16H150.85Z" transform="translate(-10.59 -11)" />
</svg>
