<svg width="204" height="177" viewBox="0 0 204 177" fill="none" xmlns="http://www.w3.org/2000/svg">
<path d="M25.53 164.11V174.47H0.589996V0H25.53V11.01H11.3V81.22H24.09V92.47H11.38V163.68H25.53V164.11Z" fill="#002329"/>
<path d="M87.19 62.21V67.41C87.19 76.61 83.23 81.21 75.3 81.21H68.89C60.96 81.21 57 76.61 57 67.41V13.8C57 4.6 60.96 0 68.89 0H75.3C83.22 0 87.19 4.6 87.19 13.8V22.96H77.27V14.59C77.27 11.42 75.79 9.84 72.83 9.84H70.87C68.25 9.84 66.94 11.42 66.94 14.59V66.62C66.94 69.79 68.25 71.37 70.87 71.37H73.35C75.97 71.37 77.28 69.79 77.28 66.62V62.21H87.19V62.21Z" fill="#FEEED5"/>
<path d="M124.82 0V65.83C124.82 76.09 120.96 81.21 113.24 81.21H105.15C97.5 81.21 93.67 76.05 93.67 65.71V0H103.25V66.06C103.25 69.61 104.65 71.38 107.44 71.38H111.33C113.93 71.38 115.22 69.61 115.22 66.06V0H124.82Z" fill="#FEEED5"/>
<path d="M142.84 81.21H133.31V13.91C133.31 4.63 137.12 0 144.73 0H151.88C159.49 0 163.3 4.64 163.3 13.91V81.21H153.77V51.47H142.85V81.21H142.84ZM153.76 42.49V14.89C153.76 11.66 152.37 10.04 149.59 10.04H147.01C144.23 10.04 142.84 11.66 142.84 14.89V42.48H153.76V42.49Z" fill="#FEEED5"/>
<path d="M171.06 0H190.36C197.89 0 201.65 4.64 201.65 13.91V33.93C201.65 41.02 199.7 45.51 195.8 47.39L202.68 81.21H193.34L186.87 48.41H180.92V81.21H171.06V0ZM180.92 39.14H187.39C190.33 39.14 191.8 37.18 191.8 33.26V15.72C191.8 11.8 190.33 9.84 187.39 9.84H180.92V39.14Z" fill="#FEEED5"/>
<path d="M31.3 0H42.12V163.53H54.94V174.47H31.77L31.3 0Z" fill="#002329"/>
<path d="M76.66 104.2V174.49H65.57V104.2L57 104.19V94.51H85.58L85.59 104.2H76.66V104.2Z" fill="#FEEED5"/>
<path d="M89.65 174.49V94.5H100.74V174.49H89.65Z" fill="#FEEED5"/>
<path d="M172.81 175.45C161.61 175.45 156.01 170.8 156.01 161.51V107.45C156.01 98.08 161.56 93.39 172.67 93.39H186C197.1 93.39 202.66 98.08 202.66 107.45V161.51C202.66 170.81 197.06 175.45 185.86 175.45H172.81ZM174.99 165.51H184.51C189.44 165.51 191.9 163.91 191.9 160.71V108.13C191.9 104.93 189.11 103.33 183.54 103.33H174.79C169.35 103.33 166.63 104.93 166.63 108.13V160.71C166.63 163.91 169.41 165.51 174.99 165.51Z" fill="#FEEED5" stroke="#FEEED5" stroke-width="2" stroke-miterlimit="10"/>
<path d="M140.85 160.69C140.85 163.89 138.39 165.49 133.46 165.49H123.94C118.37 165.49 115.58 163.89 115.58 160.69V108.13C115.58 104.93 118.3 103.33 123.74 103.33H132.49C138.06 103.33 140.85 104.93 140.85 108.13V115.53H151.6V107.44C151.6 98.07 146.04 93.38 134.94 93.38H121.61C110.5 93.38 104.95 98.07 104.95 107.44V161.49C104.95 170.78 110.55 175.43 121.75 175.43H134.79C145.99 175.43 151.59 170.78 151.59 161.49V157.33H140.84V160.69H140.85Z" fill="#FEEED5" stroke="#FEEED5" stroke-width="2" stroke-miterlimit="10"/>
</svg>
